<svg width="55" height="56" viewBox="0 0 55 56" fill="none" xmlns="http://www.w3.org/2000/svg">
<g id="vuesax/outline/heart">
<g id="vuesax/outline/heart_2">
<g id="heart">
<path id="Vector" d="M27.4677 50.0439C26.7607 50.0439 26.0765 49.9527 25.5063 49.7474C16.7941 46.7597 2.9502 36.1544 2.9502 20.486C2.9502 12.5036 9.40458 6.02637 17.3414 6.02637C21.1958 6.02637 24.7993 7.53163 27.4677 10.2229C30.1362 7.53163 33.7397 6.02637 37.5941 6.02637C45.5309 6.02637 51.9853 12.5264 51.9853 20.486C51.9853 36.1772 38.1414 46.7597 29.4291 49.7474C28.859 49.9527 28.1748 50.0439 27.4677 50.0439ZM17.3414 9.44742C11.2976 9.44742 6.37125 14.3965 6.37125 20.486C6.37125 36.0632 21.3555 44.7299 26.6239 46.5316C27.0344 46.6685 27.9239 46.6685 28.3344 46.5316C33.58 44.7299 48.587 36.086 48.587 20.486C48.587 14.3965 43.6607 9.44742 37.6169 9.44742C34.1502 9.44742 30.9344 11.0667 28.859 13.872C28.2204 14.7386 26.7607 14.7386 26.1221 13.872C24.0011 11.0439 20.8081 9.44742 17.3414 9.44742Z" fill="#292D32"/>
</g>
</g>
</g>
</svg>
