<svg width="55" height="56" viewBox="0 0 55 56" fill="none" xmlns="http://www.w3.org/2000/svg">
<g id="vuesax/linear/notification">
<g id="vuesax/linear/notification_2">
<g id="notification">
<path id="Vector" d="M27.6415 7.30353C20.0923 7.30353 13.9573 13.4386 13.9573 20.9877V27.579C13.9573 28.9702 13.3643 31.0912 12.6573 32.2772L10.0344 36.6334C8.41515 39.3246 9.53269 42.3123 12.4976 43.3158C22.3274 46.6 32.9327 46.6 42.7625 43.3158C45.5222 42.4035 46.7309 39.1421 45.2257 36.6334L42.6029 32.2772C41.9187 31.0912 41.3257 28.9702 41.3257 27.579V20.9877C41.3257 13.4614 35.1678 7.30353 27.6415 7.30353Z" stroke="#292D32" stroke-width="3.42105" stroke-miterlimit="10" stroke-linecap="round"/>
<path id="Vector_2" d="M31.8614 7.96493C31.1544 7.75967 30.4246 7.60002 29.672 7.50879C27.4825 7.23511 25.3843 7.39476 23.4229 7.96493C24.0843 6.27721 25.7264 5.09125 27.6422 5.09125C29.5579 5.09125 31.2 6.27721 31.8614 7.96493Z" stroke="#292D32" stroke-width="3.42105" stroke-miterlimit="10" stroke-linecap="round" stroke-linejoin="round"/>
<path id="Vector_3" d="M34.4835 44.1368C34.4835 47.9 31.4046 50.9789 27.6414 50.9789C25.7712 50.9789 24.0379 50.2035 22.8063 48.9719C21.5748 47.7404 20.7993 46.007 20.7993 44.1368" stroke="#292D32" stroke-width="3.42105" stroke-miterlimit="10"/>
</g>
</g>
</g>
</svg>
