<svg width="171" height="147" viewBox="0 0 171 147" fill="none" xmlns="http://www.w3.org/2000/svg">
<g id="work and chill-01-602b 2">
<path id="Vector" d="M57.7296 75.6211C60.2455 77.0643 63.6438 79.9312 66.2401 83.1248C68.8364 86.3184 71.4278 89.6485 71.4278 89.6485C71.4278 89.6485 78.795 90.2043 83.7 91.316C83.6469 92.4453 83.3995 93.5569 82.9686 94.6022C82.9686 94.6022 76.6424 95.1409 70.6087 94.5754C69.7051 94.571 68.8276 94.2714 68.1099 93.7221C66.891 92.7957 60.538 87.4276 60.538 87.4276C60.538 87.4276 55.4185 83.3564 56.1499 79.3827C56.8812 75.409 57.7296 75.6211 57.7296 75.6211Z" fill="#17212B"/>
<path id="Vector_2" d="M85.0313 13.8947H84.5535V30.706H85.0313V13.8947Z" fill="#E3E3E3"/>
<path id="Vector_3" d="M84.7928 37.1542C84.1742 37.1542 83.5695 36.9708 83.0551 36.6271C82.5408 36.2834 82.1399 35.7949 81.9031 35.2234C81.6664 34.6519 81.6045 34.023 81.7251 33.4162C81.8458 32.8095 82.1437 32.2522 82.5811 31.8148C83.0186 31.3774 83.5759 31.0795 84.1826 30.9588C84.7893 30.8381 85.4182 30.9 85.9897 31.1368C86.5613 31.3735 87.0498 31.7744 87.3934 32.2887C87.7371 32.8031 87.9206 33.4078 87.9206 34.0264C87.9199 34.8558 87.5902 35.651 87.0037 36.2374C86.4173 36.8238 85.6221 37.1535 84.7928 37.1542ZM84.7928 31.3789C84.2686 31.3789 83.7562 31.5344 83.3203 31.8257C82.8845 32.117 82.5448 32.531 82.3443 33.0154C82.1438 33.4997 82.0915 34.0326 82.194 34.5468C82.2964 35.0609 82.549 35.533 82.9199 35.9035C83.2907 36.274 83.7631 36.5262 84.2773 36.6282C84.7915 36.7302 85.3244 36.6773 85.8086 36.4764C86.2927 36.2755 86.7064 35.9354 86.9973 35.4993C87.2882 35.0632 87.4432 34.5507 87.4427 34.0264C87.4414 33.3243 87.1618 32.6512 86.665 32.1549C86.1683 31.6586 85.495 31.3796 84.7928 31.3789Z" fill="#E3E3E3"/>
<path id="Vector_4" d="M100.063 34.0261H69.5244L71.1041 32.4342C77.4572 26.03 81.8502 24.009 84.7926 24.009C87.7376 24.009 92.1281 26.03 98.4836 32.4342L100.063 34.0261Z" fill="#D1D1D1"/>
<path id="Vector_5" d="M146.365 127.742V133.912H150.992V125.767L146.365 127.742Z" fill="#D1D1D1"/>
<path id="Vector_6" d="M111.009 127.742V133.912H115.66V125.767L111.009 127.742Z" fill="#D1D1D1"/>
<path id="Vector_7" d="M150.992 99.6655H141.736V127.742H150.992V99.6655Z" fill="#D1D1D1"/>
<path id="Vector_8" d="M44.939 81.986C39.5538 81.4984 29.6806 83.7169 22.5109 100.189C15.3412 116.662 27.2013 133.076 34.2345 133.817H75.5316C75.5316 133.817 79.5833 124.066 78.6374 112.591C77.6915 101.116 50.5461 90.6233 50.5461 90.6233L44.939 81.986Z" fill="#1AA7FF"/>
<path id="Vector_9" d="M142.437 99.6655H101.657V127.742V133.912H107.025V127.742H136.367V133.912H141.735V127.742H142.437V99.6655Z" fill="#F5F5F5"/>
<path id="Vector_10" d="M51.7647 74.5995C51.7647 74.5995 52.7715 72.2568 52.1328 70.3333C51.4941 68.4099 49.5048 65.4454 51.5185 63.7097C53.5321 61.974 55.2362 60.1285 58.3444 61.2304C61.4527 62.3323 61.3503 63.0344 61.3503 63.0344C61.3503 63.0344 61.3308 65.8989 61.282 68.5098C61.2333 71.1207 60.6068 74.1047 57.4693 73.6512L57.518 77.0837C57.518 77.0837 53.9344 77.7054 51.7647 74.5995Z" fill="#FFBC9D"/>
<path id="Vector_11" d="M52.8768 70.6405L53.1449 68.7804C52.8625 68.7843 52.5812 68.744 52.3112 68.6609C51.7456 68.5147 50.8143 65.8964 52.0406 65.5503C53.2668 65.2041 53.3107 67.6273 53.3107 67.6273L54.2078 67.7565C54.2078 67.7565 53.2546 65.3016 54.5345 63.6707C55.8144 62.0398 56.6554 62.0958 57.4404 62.9954C58.2254 63.895 59.0713 64.8311 60.4243 64.519C61.7773 64.207 63.0231 62.8126 62.1089 61.4449C61.1947 60.0773 60.1586 60.4698 60.1586 60.4698C60.1586 60.4698 59.2663 58.951 56.8431 58.5366C54.4199 58.1221 53.2083 60.1699 53.2083 60.1699C53.2083 60.1699 52.0016 59.4727 50.7461 60.9257C49.4906 62.3786 49.5905 64.4191 50.1025 65.4089C50.6144 66.3986 50.0196 65.5283 50.4755 67.3591C50.7193 68.3513 51.3336 69.7434 51.8431 70.8087C51.8942 70.9148 51.9783 71.0015 52.0828 71.0559C52.1872 71.1103 52.3065 71.1295 52.4228 71.1106C52.539 71.0917 52.646 71.0357 52.7278 70.951C52.8097 70.8662 52.8619 70.7573 52.8768 70.6405Z" fill="#17212B"/>
<path id="Vector_12" d="M81.4378 129.27L80.3335 133.817H94.1829C94.1829 133.817 93.9391 130.504 91.962 130.012C89.9849 129.519 87.2594 129.682 87.2594 129.682L84.8971 126.906L81.4378 129.27Z" fill="#2F4559"/>
<path id="Vector_13" d="M141.677 44.3971H138.773V85.9697H141.677V44.3971Z" fill="#D1D1D1"/>
<path id="Vector_14" d="M138.774 44.6143H109.434V85.9674H138.774V44.6143Z" fill="#F5F5F5"/>
<path id="Vector_15" d="M135.252 49.5801H112.958V81.0039H135.252V49.5801Z" fill="#D1D1D1"/>
<path id="Vector_16" d="M139.012 86.2082H109.195V44.3748H139.012V86.2082ZM109.673 85.7206H138.535V44.855H109.673V85.7206Z" fill="#D1D1D1"/>
<path id="Vector_17" d="M128.335 57.0177C128.116 57.693 126.536 58.2366 124.315 58.2366C122.094 58.2366 120.298 57.6954 120.298 57.0177C120.298 56.34 122.167 56.3595 124.315 55.7988C127.899 54.8992 128.54 56.3814 128.335 57.0177Z" fill="#F5F5F5"/>
<path id="Vector_18" d="M129.489 62.3664C129.489 63.0368 127.173 63.5853 124.316 63.5853C121.458 63.5853 119.469 62.9613 119.145 62.3664C118.799 61.735 119.03 60.1309 124.316 61.1475C127.119 61.7009 129.489 61.6985 129.489 62.3664Z" fill="#F5F5F5"/>
<path id="Vector_19" d="M130.638 67.7172C130.638 68.3852 127.808 68.9361 124.315 68.9361C120.821 68.9361 117.991 68.3949 117.991 67.7172C117.991 67.0395 120.885 67.1589 124.315 66.4983C131.27 65.1818 130.638 67.0492 130.638 67.7172Z" fill="#F5F5F5"/>
<path id="Vector_20" d="M131.792 73.0662C131.792 73.7342 128.444 74.2852 124.315 74.2852C120.185 74.2852 116.838 73.7415 116.838 73.0662C116.838 72.391 117.991 70.2335 124.315 71.8473C128.313 72.8834 131.792 72.3983 131.792 73.0662Z" fill="#F5F5F5"/>
<path id="Vector_21" d="M139.673 124.4H104.208V102.481H139.673V124.4ZM104.502 124.105H139.378V102.774H104.502V124.105Z" fill="#D1D1D1"/>
<path id="Vector_22" d="M115.661 102.628H104.354V124.254H115.661V102.628Z" fill="#17212B"/>
<path id="Vector_23" d="M139.525 102.628H115.661V124.254H139.525V102.628Z" fill="#2F4559"/>
<path id="Vector_24" d="M142.67 94.2509H126.682V96.9569H142.67V94.2509Z" fill="#1AA7FF"/>
<path id="Vector_25" d="M142.669 95.1041H138.003V96.1061H142.669V95.1041Z" fill="white"/>
<path id="Vector_26" d="M117.954 114.817H108.715V116.382H117.954V114.817Z" fill="#1AA7FF"/>
<path id="Vector_27" d="M117.954 115.309H115.258V115.889H117.954V115.309Z" fill="white"/>
<path id="Vector_28" d="M140.668 96.9596H124.68V99.6656H140.668V96.9596Z" fill="#17212B"/>
<path id="Vector_29" d="M140.668 97.8101H133.696V98.812H140.668V97.8101Z" fill="white"/>
<path id="Vector_30" d="M140.541 116.379H107.145V118.205H140.541V116.379Z" fill="#F5F5F5"/>
<path id="Vector_31" d="M140.541 109.458H107.145V111.284H140.541V109.458Z" fill="#F5F5F5"/>
<path id="Vector_32" d="M121.925 104.902H120.719V109.458H121.925V104.902Z" fill="#1AA7FF"/>
<path id="Vector_33" d="M124.761 104.902H121.923V109.458H124.761V104.902Z" fill="#17212B"/>
<path id="Vector_34" d="M121.925 105.643H120.719V106.014H121.925V105.643Z" fill="white"/>
<path id="Vector_35" d="M82.1645 95.0482C74.4389 96.0477 59.0513 101.479 59.0513 101.479L62.5423 109.444L80.3385 101.855L82.1645 95.0482Z" fill="#2F4559"/>
<path id="Vector_36" d="M63.0663 89.6359C62.9249 91.9786 62.1667 102.998 62.1667 102.998L49.2949 102.871C49.2949 102.871 44.4192 82.4784 44.9872 79.9552C45.5552 77.432 49.1827 76.1302 51.7132 74.4384C51.7132 74.4384 52.3324 75.6134 54.3266 75.9498C56.7644 76.3618 57.7396 75.6158 57.7396 75.6158C58.7735 76.4162 59.7132 77.3314 60.5407 78.3438C61.9278 80.0088 63.4661 83.0878 63.0663 89.6359Z" fill="#17212B"/>
<path id="Vector_37" d="M64.4878 97.0568C65.0493 96.8784 65.6523 96.8784 66.2138 97.0568C67.2011 97.3494 68.9905 97.9052 69.8559 97.3494C70.4293 96.9682 70.9663 96.5348 71.46 96.0549C71.46 96.0549 73.0007 96.7229 73.9271 96.8204C74.8535 96.9179 73.8662 96.1134 72.7545 95.0968C71.6429 94.0802 70.658 92.3274 69.9169 92.5249C69.1757 92.7224 67.3864 93.0295 65.4751 93.7097C64.3383 94.1152 63.1575 94.3844 61.9573 94.5117C61.9573 94.5117 61.6477 97.0568 63.0665 97.0568H64.4878Z" fill="#FFBC9D"/>
<path id="Vector_38" d="M47.4566 77.5126C45.0529 77.3395 43.7535 80.5112 43.8462 84.5653C43.9388 88.6194 45.1407 98.7999 48.6585 99.6336C52.1763 100.467 61.7107 98.0929 64.4874 97.0568C64.663 95.8238 64.663 94.5721 64.4874 93.3391C64.4874 93.3391 55.972 93.1538 51.8106 93.2465C51.8106 93.2465 51.1622 87.4542 50.7916 83.5463C50.4211 79.6384 50.0578 77.6979 47.4566 77.5126Z" fill="#2F4559"/>
<path id="Vector_39" d="M49.2949 102.871C49.6411 107.038 52.8834 113.222 61.8254 112.103C70.7675 110.984 77.3228 108.264 77.3228 108.264C77.3228 108.264 77.0303 112.345 77.7007 118.515C78.1138 122.254 79.1729 125.892 80.8309 129.268C80.8309 129.268 84.2097 130 86.8231 128.14C86.8231 128.14 85.0167 109.054 85.0484 104.034C85.08 99.0146 84.4072 97.2886 79.7119 98.2759C75.0166 99.2633 49.2949 102.871 49.2949 102.871Z" fill="#17212B"/>
<path id="Vector_40" d="M75.5313 133.817C75.5313 133.817 75.8483 127.922 72.879 119.256C69.9097 110.589 64.4879 105.748 55.8482 102.998C47.2085 100.248 42.7667 101.36 40.6677 94.3265C40.6677 94.3265 30.6726 98.6464 29.3147 114.69C27.9568 130.733 34.2513 133.817 34.2513 133.817H75.5313Z" fill="#1AA7FF"/>
<path id="Vector_41" d="M75.1511 128.503C74.8177 126.332 74.3413 124.187 73.7249 122.079C73.4178 121.026 73.0862 119.98 72.7084 118.951L72.4207 118.181C72.3256 117.923 72.233 117.664 72.1184 117.415L71.7917 116.662C71.6845 116.418 71.5772 116.158 71.448 115.916C70.5072 113.935 69.2981 112.092 67.8546 110.441C66.4039 108.798 64.7163 107.38 62.8473 106.235C60.9731 105.101 58.9821 104.171 56.9087 103.464C54.8287 102.761 52.713 102.168 50.5703 101.689C49.5025 101.433 48.4323 101.189 47.3718 100.889C46.2996 100.615 45.2667 100.205 44.2977 99.6704C43.3294 99.1136 42.5112 98.3297 41.9135 97.3861C41.6111 96.9232 41.3516 96.4336 41.1383 95.9234C40.9248 95.4144 40.7384 94.8944 40.58 94.3656L40.6921 94.4168C40.2389 94.6292 39.8015 94.8736 39.383 95.1482C38.9622 95.4226 38.5554 95.7179 38.1641 96.0331C37.3729 96.6601 36.6335 97.3498 35.953 98.0955C35.2693 98.8385 34.6388 99.6287 34.0661 100.46C33.4949 101.294 32.9739 102.161 32.5059 103.057C32.0506 103.957 31.6437 104.882 31.2869 105.826C31.1212 106.313 30.931 106.772 30.7994 107.257L30.5726 107.988L30.3727 108.72C29.8546 110.679 29.5055 112.679 29.3293 114.697C29.482 112.675 29.8082 110.669 30.3045 108.703L30.4946 107.971L30.7165 107.24C30.853 106.752 31.0383 106.277 31.204 105.797C31.5566 104.845 31.9635 103.915 32.423 103.01C32.8844 102.104 33.4005 101.226 33.9686 100.382C34.544 99.5444 35.176 98.747 35.8603 97.9956C36.5427 97.2408 37.2855 96.5429 38.0812 95.9088C38.4761 95.5919 38.8881 95.2896 39.3148 95.0116C39.7388 94.7266 40.1828 94.4724 40.6434 94.251L40.7263 94.212L40.7531 94.3022C40.9103 94.825 41.0967 95.3386 41.3114 95.8405C41.5216 96.3433 41.7779 96.8256 42.0768 97.2813C42.3728 97.7354 42.7187 98.1549 43.108 98.5319C43.5036 98.9063 43.9413 99.2335 44.4123 99.507C45.3683 100.031 46.3864 100.433 47.4425 100.704C48.4981 100.997 49.5683 101.238 50.6361 101.489C52.7809 101.97 54.897 102.57 56.9745 103.288C59.0589 104.004 61.0592 104.945 62.9399 106.094C64.8178 107.254 66.5121 108.688 67.9667 110.348C69.4108 112.014 70.6191 113.87 71.5577 115.865C72.48 117.863 73.2287 119.936 73.7956 122.062C74.3881 124.177 74.8409 126.328 75.1511 128.503Z" fill="#636363"/>
<path id="Vector_42" d="M76.8893 114.171L72.957 116.706L82.9936 126.243C82.9936 126.243 85.0951 123.671 84.0053 121.955C82.9156 120.238 80.8215 118.478 80.8215 118.478L81.0214 114.836L76.8893 114.171Z" fill="#2F4559"/>
<path id="Vector_43" d="M83.6271 98.432C81.1478 100.743 78.6466 104.354 76.0552 114.073C76.0552 114.073 78.4638 117.681 81.7012 117.311C81.7012 117.311 86.8841 106.296 88.6442 101.669C90.4043 97.0424 90.124 96.3062 87.7178 95.0873C85.3117 93.8684 80.6846 95.0873 80.6846 95.0873L80.9626 98.0566C81.4169 98.0143 81.8745 98.02 82.3277 98.0736C82.78 98.1075 83.2214 98.2292 83.6271 98.432Z" fill="#2F4559"/>
<path id="Vector_44" d="M82.9396 97.937L73.5295 99.3144L76.9181 87.1276L86.3307 85.7502L82.9396 97.937Z" fill="#D1D1D1"/>
<path id="Vector_45" d="M82.9397 97.9368L66.2405 100.428V99.0192L83.3346 96.5204L82.9397 97.9368Z" fill="#F5F5F5"/>
<path id="Vector_46" d="M81.3838 91.994C81.4562 91.3925 81.0955 90.8544 80.5782 90.7921C80.0608 90.7299 79.5828 91.1671 79.5104 91.7686C79.4381 92.3701 79.7988 92.9082 80.3161 92.9705C80.8334 93.0327 81.3114 92.5955 81.3838 91.994Z" fill="#F5F5F5"/>
<path id="Vector_47" d="M73.9246 97.8954L73.5223 99.3435L66.2405 100.428V99.0192L73.9246 97.8954Z" fill="#D1D1D1"/>
<path id="Vector_48" d="M35.1458 133.785L36.0721 124.134H41.8108L36.9961 133.785H35.1458Z" fill="#17212B"/>
<path id="Vector_49" d="M58.2608 133.785L57.3368 124.134H51.5981L56.4104 133.785H58.2608Z" fill="#17212B"/>
<path id="Vector_50" d="M60.2606 120.299H33.1104V124.134H60.2606V120.299Z" fill="#17212B"/>
<path id="Vector_51" d="M54.7459 120.299C54.0927 120.299 53.4661 120.04 53.004 119.578C52.5419 119.117 52.2819 118.49 52.2812 117.837V115.428H57.2081V117.837C57.2081 118.49 56.9487 119.116 56.487 119.578C56.0252 120.04 55.3989 120.299 54.7459 120.299Z" fill="#17212B"/>
<path id="Vector_52" d="M110.714 95.4258C110.714 95.4258 110.227 95.026 109.859 94.6774C109.444 94.2431 109.148 93.709 109 93.127C109 93.127 110.761 93.3415 111.316 94.2752C111.872 95.2089 111.824 95.4258 111.824 95.4258H110.714Z" fill="#1AA7FF"/>
<path id="Vector_53" d="M115.295 95.4258C115.295 95.4258 115.782 95.026 116.153 94.6774C116.566 94.2425 116.861 93.7086 117.008 93.127C117.008 93.127 115.248 93.3415 114.695 94.2752C114.142 95.2089 114.185 95.4258 114.185 95.4258H115.295Z" fill="#1AA7FF"/>
<path id="Vector_54" d="M111.823 95.4258C111.823 95.4258 111.316 94.8846 111.316 93.5194C111.316 92.1543 111.43 91.7837 111.43 91.7837C111.43 91.7837 112.681 92.871 112.817 93.89C112.897 94.398 112.936 94.9116 112.934 95.4258H111.823Z" fill="#1AA7FF"/>
<path id="Vector_55" d="M112.935 95.426C112.849 94.7373 112.92 94.0381 113.142 93.3807C113.416 92.5956 113.789 91.8491 114.254 91.1598C114.254 91.1598 114.949 93.2271 114.624 94.2754C114.3 95.3236 114.276 95.426 114.276 95.426H112.935Z" fill="#1AA7FF"/>
<path id="Vector_56" d="M111.174 95.0895C110.83 94.7677 110.491 94.4703 110.153 94.1607C109.984 94.0047 109.811 93.856 109.643 93.6975C109.475 93.5391 109.304 93.383 109.156 93.21C109.579 93.4125 109.971 93.6743 110.321 93.9876C110.497 94.141 110.66 94.309 110.808 94.4898C110.961 94.6691 111.085 94.8715 111.174 95.0895Z" fill="#636363"/>
<path id="Vector_57" d="M112.358 94.6359C112.292 94.4287 112.211 94.2361 112.138 94.0386L111.916 93.4487C111.843 93.2512 111.768 93.0537 111.702 92.8538C111.63 92.6515 111.568 92.4456 111.517 92.2371C111.776 92.5818 111.984 92.9619 112.136 93.3658C112.217 93.5662 112.28 93.7734 112.324 93.985C112.374 94.1982 112.385 94.4186 112.358 94.6359Z" fill="#636363"/>
<path id="Vector_58" d="M116.855 93.2391C116.533 93.4951 116.221 93.7267 115.924 93.9851C115.773 94.1094 115.629 94.2411 115.485 94.3776C115.341 94.5141 115.205 94.6555 115.054 94.7969C115.206 94.4124 115.452 94.0716 115.768 93.8047C115.923 93.6684 116.093 93.5499 116.275 93.4512C116.455 93.3487 116.651 93.277 116.855 93.2391Z" fill="#636363"/>
<path id="Vector_59" d="M113.583 94.7212C113.55 94.4508 113.55 94.1774 113.583 93.907C113.61 93.6392 113.652 93.373 113.708 93.1098C113.819 92.5814 113.982 92.0653 114.195 91.5691C114.144 92.1023 114.063 92.6322 113.951 93.1561C113.837 93.6827 113.712 94.1946 113.583 94.7212Z" fill="#636363"/>
<path id="Vector_60" d="M113.006 99.7314C112.568 99.7317 112.134 99.6457 111.729 99.4782C111.324 99.3107 110.957 99.065 110.647 98.7553C110.337 98.4456 110.092 98.0778 109.924 97.673C109.757 97.2683 109.671 96.8344 109.671 96.3964V95.4213H116.338V96.3964C116.339 96.8342 116.253 97.2679 116.085 97.6725C115.918 98.0771 115.673 98.4447 115.363 98.7544C115.054 99.0641 114.686 99.3098 114.282 99.4775C113.877 99.6451 113.444 99.7314 113.006 99.7314Z" fill="#17212B"/>
<path id="Vector_61" d="M57.3008 118.771C57.0115 118.771 56.7287 118.685 56.4882 118.525C56.2477 118.364 56.0602 118.135 55.9495 117.868C55.8388 117.601 55.8098 117.307 55.8662 117.023C55.9227 116.739 56.062 116.479 56.2666 116.274C56.4711 116.07 56.7317 115.93 57.0155 115.874C57.2992 115.817 57.5933 115.846 57.8606 115.957C58.1279 116.068 58.3563 116.255 58.517 116.496C58.6778 116.736 58.7636 117.019 58.7636 117.308C58.7636 117.696 58.6094 118.068 58.3351 118.343C58.0608 118.617 57.6888 118.771 57.3008 118.771ZM57.3008 116.553C57.1523 116.553 57.0072 116.597 56.8837 116.679C56.7602 116.762 56.664 116.879 56.6071 117.016C56.5503 117.153 56.5354 117.304 56.5644 117.45C56.5934 117.596 56.6649 117.729 56.7699 117.834C56.8749 117.939 57.0087 118.011 57.1544 118.04C57.3 118.069 57.451 118.054 57.5882 117.997C57.7254 117.94 57.8426 117.844 57.9252 117.721C58.0077 117.597 58.0517 117.452 58.0517 117.304C58.053 117.204 58.0345 117.105 57.9974 117.013C57.9602 116.921 57.9051 116.837 57.8353 116.766C57.7654 116.696 57.6822 116.639 57.5905 116.601C57.4987 116.563 57.4003 116.543 57.3008 116.543V116.553Z" fill="#17212B"/>
<path id="Vector_62" d="M46.099 118.444H35.1458V120.299H46.099V118.444Z" fill="#17212B"/>
<path id="Vector_63" d="M46.1017 119.029H41.3235V119.717H46.1017V119.029Z" fill="white"/>
<path id="Vector_64" d="M52.3299 65.9181C52.0618 63.0122 51.5986 59.1433 54.5752 58.5095L56.4377 58.4827C56.4377 58.4827 53.8243 58.7581 53.678 61.7469C53.5318 64.7357 53.6171 66.1131 53.6171 66.1131L52.3299 65.9181Z" fill="#2F4559"/>
<path id="Vector_65" d="M53.5996 70.6951C54.7672 70.5604 55.5586 69.1056 55.3671 67.4458C55.1756 65.7859 54.0739 64.5495 52.9062 64.6842C51.7386 64.8189 50.9472 66.2737 51.1387 67.9335C51.3301 69.5934 52.4319 70.8298 53.5996 70.6951Z" fill="#2F4559"/>
<path id="Vector_66" d="M52.9052 64.6798C53.2809 64.6269 53.6635 64.7006 53.9925 64.8894C54.3192 65.0863 54.6001 65.3506 54.8165 65.6647C55.2411 66.2978 55.4778 67.0382 55.4991 67.8002C55.5404 68.567 55.326 69.3258 54.8897 69.9577C54.6654 70.2713 54.3532 70.5114 53.9925 70.6476C53.6323 70.7718 53.2388 70.7579 52.8882 70.6086C53.0647 70.6597 53.2482 70.6819 53.4318 70.6744C53.5224 70.6704 53.6124 70.6565 53.7 70.633C53.7838 70.6124 53.8654 70.5838 53.9438 70.5477C54.2722 70.4023 54.5504 70.1631 54.7434 69.8602C55.1331 69.2495 55.3184 68.5306 55.2724 67.8075C55.2606 67.0819 55.0516 66.3732 54.6678 65.7573C54.4808 65.45 54.2317 65.1851 53.9365 64.9796C53.6327 64.7739 53.2719 64.669 52.9052 64.6798Z" fill="#636363"/>
<path id="Vector_67" d="M52.7872 69.2061C53.4311 69.1707 53.9173 68.4882 53.873 67.6816C53.8288 66.875 53.2709 66.2497 52.6269 66.285C51.983 66.3204 51.4968 67.0029 51.5411 67.8095C51.5853 68.6161 52.1432 69.2414 52.7872 69.2061Z" fill="#17212B"/>
<path id="Vector_68" d="M84.7928 91.1599L82.1648 92.2448L81.5261 93.9708L82.8036 95.47L85.434 94.3267L85.8972 91.8888C85.8972 91.8888 85.7412 90.5748 85.7119 89.334C85.6827 88.0931 85.3828 88.315 85.2243 89.334C85.1203 89.9514 84.9761 90.5613 84.7928 91.1599Z" fill="#FFBC9D"/>
</g>
</svg>
